<svg width="16" height="16" viewBox="0 0 16 16" fill="none" xmlns="http://www.w3.org/2000/svg">
<path d="M14.6742 15.9118L9.10511 10.3427C8.66311 10.6963 8.15482 10.9762 7.58022 11.1825C7.00563 11.3887 6.3942 11.4919 5.74594 11.4919C4.14002 11.4919 2.78089 10.9357 1.66853 9.82335C0.556178 8.71099 0 7.35186 0 5.74594C0 4.14002 0.556178 2.78089 1.66853 1.66853C2.78089 0.556178 4.14002 0 5.74594 0C7.35186 0 8.71099 0.556178 9.82335 1.66853C10.9357 2.78089 11.4919 4.14002 11.4919 5.74594C11.4919 6.3942 11.3887 7.00563 11.1825 7.58022C10.9762 8.15482 10.6963 8.66311 10.3427 9.10511L15.9118 14.6742L14.6742 15.9118ZM5.74594 9.7239C6.85093 9.7239 7.79017 9.33715 8.56366 8.56366C9.33715 7.79017 9.7239 6.85093 9.7239 5.74594C9.7239 4.64095 9.33715 3.70171 8.56366 2.92822C7.79017 2.15473 6.85093 1.76798 5.74594 1.76798C4.64095 1.76798 3.70171 2.15473 2.92822 2.92822C2.15473 3.70171 1.76798 4.64095 1.76798 5.74594C1.76798 6.85093 2.15473 7.79017 2.92822 8.56366C3.70171 9.33715 4.64095 9.7239 5.74594 9.7239Z" fill="white"/>
</svg>
