<svg width="20" height="19" viewBox="0 0 20 19" fill="red" xmlns="http://www.w3.org/2000/svg">
<path d="M10.2294 9.61094C8.93584 9.61094 7.82848 9.16955 6.9073 8.28676C5.98613 7.40397 5.52554 6.34274 5.52554 5.10308C5.52554 3.86342 5.98613 2.80219 6.9073 1.9194C7.82848 1.03661 8.93584 0.595215 10.2294 0.595215C11.523 0.595215 12.6303 1.03661 13.5515 1.9194C14.4727 2.80219 14.9333 3.86342 14.9333 5.10308C14.9333 6.34274 14.4727 7.40397 13.5515 8.28676C12.6303 9.16955 11.523 9.61094 10.2294 9.61094ZM0.821686 18.6267V15.4712C0.821686 14.8326 0.993181 14.2456 1.33617 13.7103C1.67916 13.175 2.13485 12.7664 2.70323 12.4847C3.91839 11.9024 5.15316 11.4657 6.40752 11.1746C7.66188 10.8835 8.93584 10.7379 10.2294 10.7379C11.523 10.7379 12.7969 10.8835 14.0513 11.1746C15.3056 11.4657 16.5404 11.9024 17.7556 12.4847C18.324 12.7664 18.7796 13.175 19.1226 13.7103C19.4656 14.2456 19.6371 14.8326 19.6371 15.4712V18.6267H0.821686ZM3.17361 16.3727H17.2852V15.4712C17.2852 15.2646 17.2313 15.0767 17.1235 14.9077C17.0157 14.7386 16.8736 14.6072 16.6972 14.5132C15.6388 14.0061 14.5707 13.6258 13.4927 13.3722C12.4147 13.1186 11.327 12.9918 10.2294 12.9918C9.13184 12.9918 8.04407 13.1186 6.9661 13.3722C5.88813 13.6258 4.81997 14.0061 3.7616 14.5132C3.5852 14.6072 3.44311 14.7386 3.33531 14.9077C3.22751 15.0767 3.17361 15.2646 3.17361 15.4712V16.3727ZM10.2294 7.35701C10.8762 7.35701 11.4299 7.13631 11.8905 6.69492C12.351 6.25352 12.5813 5.72291 12.5813 5.10308C12.5813 4.48325 12.351 3.95263 11.8905 3.51124C11.4299 3.06984 10.8762 2.84915 10.2294 2.84915C9.58262 2.84915 9.02894 3.06984 8.56835 3.51124C8.10777 3.95263 7.87747 4.48325 7.87747 5.10308C7.87747 5.72291 8.10777 6.25352 8.56835 6.69492C9.02894 7.13631 9.58262 7.35701 10.2294 7.35701Z" fill="white"/>
</svg>
