<svg width="20" height="19" viewBox="0 0 20 19" fill="none" xmlns="http://www.w3.org/2000/svg">
<path d="M11.1822 18.4392C9.48877 18.4392 8.04625 17.8682 6.85461 16.7262C5.66296 15.5842 5.06714 14.2018 5.06714 12.5789V12.0605C3.7187 11.8502 2.59761 11.2454 1.70388 10.2461C0.810148 9.24689 0.363281 8.07108 0.363281 6.71872V1.30929H3.1856V0.407715H5.06714V4.01401H3.1856V3.11243H2.24482V6.71872C2.24482 7.71045 2.61329 8.55944 3.35023 9.26567C4.08717 9.9719 4.97306 10.325 6.00791 10.325C7.04276 10.325 7.92865 9.9719 8.66559 9.26567C9.40253 8.55944 9.771 7.71045 9.771 6.71872V3.11243H8.83023V4.01401H6.94868V0.407715H8.83023V1.30929H11.6525V6.71872C11.6525 8.07108 11.2057 9.24689 10.3119 10.2461C9.41821 11.2454 8.29712 11.8502 6.94868 12.0605V12.5789C6.94868 13.7059 7.36027 14.6638 8.18345 15.4527C9.00662 16.2416 10.0062 16.636 11.1822 16.636C12.3581 16.636 13.3577 16.2416 14.1809 15.4527C15.004 14.6638 15.4156 13.7059 15.4156 12.5789V11.0688C14.8668 10.8885 14.4161 10.5654 14.0633 10.0996C13.7105 9.63381 13.5341 9.10789 13.5341 8.52187C13.5341 7.77056 13.8085 7.13195 14.3573 6.60603C14.906 6.08011 15.5724 5.81715 16.3564 5.81715C17.1404 5.81715 17.8068 6.08011 18.3555 6.60603C18.9043 7.13195 19.1787 7.77056 19.1787 8.52187C19.1787 9.10789 19.0023 9.63381 18.6495 10.0996C18.2967 10.5654 17.846 10.8885 17.2972 11.0688V12.5789C17.2972 14.2018 16.7014 15.5842 15.5097 16.7262C14.3181 17.8682 12.8755 18.4392 11.1822 18.4392ZM16.3564 9.42344C16.623 9.42344 16.8464 9.33704 17.0267 9.16424C17.207 8.99144 17.2972 8.77732 17.2972 8.52187C17.2972 8.26642 17.207 8.0523 17.0267 7.8795C16.8464 7.7067 16.623 7.6203 16.3564 7.6203C16.0898 7.6203 15.8664 7.7067 15.6861 7.8795C15.5058 8.0523 15.4156 8.26642 15.4156 8.52187C15.4156 8.77732 15.5058 8.99144 15.6861 9.16424C15.8664 9.33704 16.0898 9.42344 16.3564 9.42344Z" fill="white"/>
</svg>
