<svg width="22" height="21" viewBox="0 0 22 21" fill="none" xmlns="http://www.w3.org/2000/svg">
<path d="M2.97498 17.8L2.12498 17.45C1.60831 17.2333 1.26248 16.8583 1.08748 16.325C0.912476 15.7917 0.941642 15.2667 1.17498 14.75L2.97498 10.85V17.8ZM6.97498 20C6.42498 20 5.95414 19.8042 5.56248 19.4125C5.17081 19.0208 4.97498 18.55 4.97498 18V12L7.62498 19.35C7.67498 19.4667 7.72498 19.5792 7.77498 19.6875C7.82498 19.7958 7.89164 19.9 7.97498 20H6.97498ZM12.125 19.9C11.5916 20.1 11.075 20.075 10.575 19.825C10.075 19.575 9.72498 19.1833 9.52498 18.65L5.07498 6.45001C4.87498 5.91667 4.89164 5.39584 5.12498 4.88751C5.35831 4.37917 5.74164 4.03334 6.27498 3.85001L13.825 1.10001C14.3583 0.900008 14.875 0.925008 15.375 1.17501C15.875 1.42501 16.225 1.81667 16.425 2.35001L20.875 14.55C21.075 15.0833 21.0583 15.6042 20.825 16.1125C20.5916 16.6208 20.2083 16.9667 19.675 17.15L12.125 19.9ZM9.97498 8.00001C10.2583 8.00001 10.4958 7.90418 10.6875 7.71251C10.8791 7.52084 10.975 7.28334 10.975 7.00001C10.975 6.71667 10.8791 6.47917 10.6875 6.28751C10.4958 6.09584 10.2583 6.00001 9.97498 6.00001C9.69164 6.00001 9.45414 6.09584 9.26248 6.28751C9.07081 6.47917 8.97498 6.71667 8.97498 7.00001C8.97498 7.28334 9.07081 7.52084 9.26248 7.71251C9.45414 7.90418 9.69164 8.00001 9.97498 8.00001ZM11.425 18L18.975 15.25L14.525 3.00001L6.97498 5.75001L11.425 18Z" fill="#289FC5"/>
</svg>
