<svg width="352" height="294" viewBox="0 0 352 294" fill="none" xmlns="http://www.w3.org/2000/svg">
<path d="M103.914 0C117.769 0 130.958 2.9309 143.481 8.79271C156.004 14.6545 166.795 22.9143 175.854 33.5722C184.913 22.9143 195.704 14.6545 208.227 8.79271C220.75 2.9309 233.939 0 247.795 0C272.84 0 293.756 8.39304 310.542 25.1791C327.329 41.9652 335.722 62.8812 335.722 87.9271C335.722 89.2593 335.655 90.5916 335.522 91.9238C335.389 93.256 335.322 94.5882 335.322 95.9205H303.348C303.615 94.5882 303.748 93.256 303.748 91.9238V87.9271C303.748 71.9403 298.419 58.6181 287.761 47.9602C277.104 37.3024 263.781 31.9735 247.795 31.9735C235.272 31.9735 223.681 35.5039 213.023 42.5647C202.366 49.6255 195.038 58.6181 191.042 69.5423H160.667C156.67 58.6181 149.343 49.6255 138.685 42.5647C128.027 35.5039 116.437 31.9735 103.914 31.9735C87.9271 31.9735 74.6048 37.3024 63.947 47.9602C53.2891 58.6181 47.9602 71.9403 47.9602 87.9271V91.9238C47.9602 93.256 48.0935 94.5882 48.3599 95.9205H16.3864C16.3864 94.5882 16.3198 93.256 16.1866 91.9238C16.0534 90.5916 15.9867 89.2593 15.9867 87.9271C15.9867 62.8812 24.3798 41.9652 41.1659 25.1791C57.9519 8.39304 78.8679 0 103.914 0ZM68.743 191.841H113.506C122.032 200.101 131.358 209.027 141.483 218.619C151.608 228.211 163.065 238.735 175.854 250.193C188.644 238.735 200.101 228.211 210.226 218.619C220.351 209.027 229.676 200.101 238.202 191.841H283.365C273.24 203.032 261.25 215.155 247.395 228.211C233.54 241.267 217.42 256.054 199.035 272.574L175.854 293.357L152.673 272.574C134.289 256.054 118.235 241.267 104.513 228.211C90.7914 215.155 78.8679 203.032 68.743 191.841ZM160.667 207.828C164.131 207.828 167.128 206.829 169.659 204.83C172.191 202.832 173.989 200.234 175.055 197.037L196.637 131.891L210.625 152.673C211.958 154.805 213.823 156.537 216.221 157.869C218.619 159.201 221.15 159.867 223.814 159.867H351.708V127.894H233.007L205.43 87.1278C203.831 84.7297 201.766 82.9312 199.235 81.7322C196.704 80.5332 193.972 79.9337 191.042 79.9337C187.578 79.9337 184.58 80.9329 182.049 82.9312C179.518 84.9296 177.719 87.5274 176.654 90.7248L155.071 155.471L141.483 135.088C140.15 132.956 138.285 131.225 135.887 129.892C133.489 128.56 130.958 127.894 128.294 127.894H0V159.867H118.702L146.279 200.634C147.877 203.032 149.942 204.83 152.474 206.029C155.005 207.228 157.736 207.828 160.667 207.828Z" fill="white"/>
</svg>
