<svg width="18" height="18" viewBox="0 0 18 18" fill="none" xmlns="http://www.w3.org/2000/svg">
<path d="M10.35 18C8.73 18 7.35 17.43 6.21 16.29C5.07 15.15 4.5 13.77 4.5 12.15V11.6325C3.21 11.4225 2.1375 10.8188 1.2825 9.82125C0.4275 8.82375 0 7.65 0 6.3V0.9H2.7V0H4.5V3.6H2.7V2.7H1.8V6.3C1.8 7.29 2.1525 8.1375 2.8575 8.8425C3.5625 9.5475 4.41 9.9 5.4 9.9C6.39 9.9 7.2375 9.5475 7.9425 8.8425C8.6475 8.1375 9 7.29 9 6.3V2.7H8.1V3.6H6.3V0H8.1V0.9H10.8V6.3C10.8 7.65 10.3725 8.82375 9.5175 9.82125C8.6625 10.8188 7.59 11.4225 6.3 11.6325V12.15C6.3 13.275 6.69375 14.2313 7.48125 15.0188C8.26875 15.8063 9.225 16.2 10.35 16.2C11.475 16.2 12.4313 15.8063 13.2188 15.0188C14.0063 14.2313 14.4 13.275 14.4 12.15V10.6425C13.875 10.4625 13.4438 10.14 13.1063 9.675C12.7688 9.21 12.6 8.685 12.6 8.1C12.6 7.35 12.8625 6.7125 13.3875 6.1875C13.9125 5.6625 14.55 5.4 15.3 5.4C16.05 5.4 16.6875 5.6625 17.2125 6.1875C17.7375 6.7125 18 7.35 18 8.1C18 8.685 17.8313 9.21 17.4938 9.675C17.1562 10.14 16.725 10.4625 16.2 10.6425V12.15C16.2 13.77 15.63 15.15 14.49 16.29C13.35 17.43 11.97 18 10.35 18ZM15.3 9C15.555 9 15.7688 8.91375 15.9413 8.74125C16.1138 8.56875 16.2 8.355 16.2 8.1C16.2 7.845 16.1138 7.63125 15.9413 7.45875C15.7688 7.28625 15.555 7.2 15.3 7.2C15.045 7.2 14.8313 7.28625 14.6588 7.45875C14.4863 7.63125 14.4 7.845 14.4 8.1C14.4 8.355 14.4863 8.56875 14.6588 8.74125C14.8313 8.91375 15.045 9 15.3 9Z" fill="white"/>
</svg>
