<svg width="20" height="23" viewBox="0 0 20 23" fill="none" xmlns="http://www.w3.org/2000/svg">
<path d="M16.7987 19.55V22.9566H14.7803V19.55V19.5066H14.7368H11.6224V17.2934H14.7368H14.7803V17.25V13.8434H16.7987V17.25V17.2934H16.8421H19.9566V19.5066H16.8421H16.7987V19.55ZM3.15789 2.34341H3.2013V2.3V0.0434101H5.21975V2.3V2.34341H5.26316H11.5789H11.6224V2.3V0.0434101H13.6408V2.3V2.34341H13.6842H14.7368C15.3029 2.34341 15.7871 2.56295 16.1917 3.00493C16.5963 3.44704 16.7987 3.97792 16.7987 4.6V11.5641C16.4623 11.5116 16.1259 11.4853 15.7895 11.4853C15.453 11.4853 15.1166 11.5116 14.7803 11.5641V9.2V9.15659H14.7368H2.10526H2.06185V9.2V18.4V18.4434H2.10526H9.43039C9.4323 18.8143 9.45871 19.1851 9.50962 19.5559C9.56003 19.923 9.65029 20.2899 9.78032 20.6566H2.10526C1.53923 20.6566 1.05501 20.437 0.650442 19.9951C0.245772 19.553 0.0434101 19.0221 0.0434101 18.4V4.6C0.0434101 3.97792 0.245772 3.44704 0.650442 3.00493C1.05501 2.56295 1.53923 2.34341 2.10526 2.34341H3.15789ZM2.06185 6.9V6.94341H2.10526H14.7368H14.7803V6.9V4.6V4.55659H14.7368H2.10526H2.06185V4.6V6.9Z" fill="#289FC5" stroke="#F7F7F7" stroke-width="0.0868201"/>
</svg>
