<svg width="19" height="16" viewBox="0 0 19 16" fill="none" xmlns="http://www.w3.org/2000/svg">
<path d="M13 10C12.1667 10 11.4583 9.70833 10.875 9.125C10.2917 8.54167 10 7.83333 10 7C10 6.16667 10.2917 5.45833 10.875 4.875C11.4583 4.29167 12.1667 4 13 4C13.8333 4 14.5417 4.29167 15.125 4.875C15.7083 5.45833 16 6.16667 16 7C16 7.83333 15.7083 8.54167 15.125 9.125C14.5417 9.70833 13.8333 10 13 10ZM7 16V14.1C7 13.75 7.08333 13.4167 7.25 13.1C7.41667 12.7833 7.65 12.5333 7.95 12.35C8.7 11.9 9.49583 11.5625 10.3375 11.3375C11.1792 11.1125 12.0667 11 13 11C13.9333 11 14.8208 11.1125 15.6625 11.3375C16.5042 11.5625 17.3 11.9 18.05 12.35C18.35 12.5333 18.5833 12.7833 18.75 13.1C18.9167 13.4167 19 13.75 19 14.1V16H7ZM9.15 14H16.85C16.2667 13.6667 15.65 13.4167 15 13.25C14.35 13.0833 13.6833 13 13 13C12.3167 13 11.65 13.0833 11 13.25C10.35 13.4167 9.73333 13.6667 9.15 14ZM13 8C13.2833 8 13.5208 7.90417 13.7125 7.7125C13.9042 7.52083 14 7.28333 14 7C14 6.71667 13.9042 6.47917 13.7125 6.2875C13.5208 6.09583 13.2833 6 13 6C12.7167 6 12.4792 6.09583 12.2875 6.2875C12.0958 6.47917 12 6.71667 12 7C12 7.28333 12.0958 7.52083 12.2875 7.7125C12.4792 7.90417 12.7167 8 13 8ZM0 10V8H8V10H0ZM0 2V0H12V2H0ZM8.1 6H0V4H9C8.76667 4.28333 8.57917 4.59167 8.4375 4.925C8.29583 5.25833 8.18333 5.61667 8.1 6Z" fill="#289FC5"/>
</svg>
